<?xml version="1.0" standalone="no"?>
<!DOCTYPE svg PUBLIC "-//W3C//DTD SVG 20010904//EN"
 "http://www.w3.org/TR/2001/REC-SVG-20010904/DTD/svg10.dtd">
<svg version="1.0" xmlns="http://www.w3.org/2000/svg"
 width="1024.000000pt" height="1024.000000pt" viewBox="0 0 1024.000000 1024.000000"
 preserveAspectRatio="xMidYMid meet">
<metadata>
Created by potrace 1.14, written by Peter Selinger 2001-2017
</metadata>
<g transform="translate(0.000000,1024.000000) scale(0.100000,-0.100000)"
fill="#000000" stroke="none">
<path d="M4939 10236 c-2 -2 -35 -6 -74 -10 -123 -11 -175 -19 -270 -41 -38
-8 -79 -17 -90 -19 -154 -29 -484 -162 -652 -263 -40 -24 -77 -43 -83 -43 -5
0 -10 -4 -10 -10 0 -5 -7 -10 -15 -10 -8 0 -15 -4 -15 -8 0 -5 -11 -14 -25
-20 -14 -7 -31 -16 -38 -22 -7 -5 -64 -50 -127 -99 -140 -108 -236 -201 -399
-386 -10 -11 -46 -58 -79 -105 -34 -47 -66 -89 -70 -95 -47 -62 -232 -405
-232 -431 0 -5 -6 -21 -14 -35 -7 -15 -23 -58 -35 -95 -12 -38 -26 -76 -30
-84 -5 -9 -12 -31 -17 -50 -4 -19 -9 -38 -10 -42 -1 -5 -3 -10 -4 -13 -3 -7
-5 -14 -15 -60 -13 -56 -12 -54 -15 -60 -4 -7 -5 -15 -14 -68 -4 -27 -9 -59
-12 -70 -13 -69 -25 -176 -28 -268 -1 -41 -6 -80 -9 -86 -4 -7 -3 -14 3 -18 7
-4 7 -13 -1 -26 -7 -14 -7 -24 0 -32 6 -8 6 -18 1 -27 -5 -8 -6 -19 -2 -24 3
-6 7 -44 8 -86 4 -119 23 -274 34 -278 4 -2 6 -11 3 -21 -2 -10 2 -44 11 -77
8 -32 17 -70 20 -84 3 -14 7 -34 10 -45 7 -32 68 -219 74 -230 4 -5 7 -17 9
-25 1 -8 6 -23 12 -35 10 -20 38 -89 42 -103 5 -18 123 -239 135 -253 8 -8 14
-20 14 -25 0 -5 14 -27 30 -48 17 -22 30 -46 30 -53 0 -7 4 -13 9 -13 5 0 18
-15 29 -33 56 -96 269 -333 408 -455 116 -101 293 -228 415 -296 163 -91 460
-216 564 -236 3 -1 34 -10 70 -20 36 -10 65 -17 65 -15 0 3 12 0 26 -5 14 -6
40 -12 57 -15 18 -2 46 -7 62 -10 34 -7 66 -11 175 -22 143 -15 571 -6 600 12
3 2 31 6 61 9 61 7 109 15 119 21 4 2 22 7 41 10 19 3 57 13 85 21 28 8 60 16
70 19 24 5 135 42 171 57 16 6 30 12 33 12 20 5 106 41 110 47 6 8 52 24 63
21 4 -1 7 3 7 8 0 6 5 10 11 10 8 0 80 38 214 114 77 43 283 197 364 270 79
73 180 176 231 236 30 36 57 67 60 70 17 17 80 99 80 104 0 4 17 29 38 56 47
62 92 134 92 149 0 6 3 11 8 11 9 0 120 218 158 310 66 160 129 374 148 504 4
21 8 41 10 45 3 5 10 53 22 161 2 19 6 70 8 113 3 44 7 81 10 84 2 3 1 16 -4
29 -5 13 -6 24 -2 24 4 0 6 17 5 38 -2 20 -5 80 -8 133 -2 52 -7 111 -10 130
-3 18 -8 54 -10 79 -3 25 -7 54 -9 65 -2 11 -14 64 -25 119 -11 54 -31 130
-43 170 -12 39 -23 79 -25 89 -2 10 -10 31 -18 47 -9 17 -15 31 -15 32 6 16
-109 267 -180 396 -28 49 -130 203 -150 224 -11 12 -20 27 -20 34 0 7 -3 14
-8 16 -4 2 -36 39 -72 82 -78 96 -298 316 -317 316 -7 0 -13 4 -13 9 0 11
-155 131 -169 131 -6 0 -11 4 -11 9 0 5 -15 18 -32 29 -171 103 -226 134 -313
176 -95 45 -123 58 -170 77 -32 13 -139 51 -150 54 -5 1 -17 5 -25 8 -23 10
-246 66 -283 72 -53 7 -100 15 -137 21 -19 4 -48 8 -65 10 -43 5 -462 13 -466
10z"/>
<path d="M4220 4480 c-6 -4 -23 -5 -37 -2 l-26 5 19 -34 c10 -19 22 -35 27
-37 4 -2 7 -7 7 -12 0 -7 81 -155 110 -200 5 -8 22 -37 38 -65 16 -27 38 -66
49 -85 11 -19 34 -60 50 -90 17 -30 63 -111 102 -178 39 -68 71 -128 71 -133
0 -5 5 -9 10 -9 6 0 10 -4 10 -9 0 -5 19 -42 42 -83 116 -199 110 -183 92
-259 -9 -35 -18 -75 -20 -89 -3 -14 -8 -34 -11 -45 -9 -26 -11 -34 -18 -70 -3
-16 -15 -68 -26 -115 -11 -47 -22 -92 -24 -100 -7 -34 -46 -198 -55 -235 -6
-22 -12 -49 -14 -60 -3 -11 -18 -78 -36 -150 -17 -71 -33 -139 -36 -150 -2
-11 -6 -29 -8 -40 -2 -11 -20 -85 -40 -165 -19 -80 -40 -167 -46 -195 -7 -27
-13 -57 -15 -65 -2 -8 -11 -44 -19 -80 -8 -36 -19 -82 -24 -102 -5 -20 -7 -39
-4 -42 3 -4 1 -6 -4 -6 -5 0 -10 -8 -10 -17 -1 -20 -5 -37 -30 -138 -9 -38
-18 -79 -20 -90 -1 -11 -3 -20 -4 -20 -1 0 -4 -11 -6 -25 -3 -14 -9 -43 -15
-65 -6 -22 -13 -48 -15 -57 -2 -10 -6 -26 -8 -36 -7 -24 -46 -192 -52 -220 -2
-13 -16 -69 -30 -125 -14 -56 -26 -111 -25 -121 0 -38 -17 1 -38 84 -12 47
-23 94 -26 105 -7 36 -15 68 -45 185 -17 63 -32 124 -34 135 -1 11 -6 30 -10
42 -4 12 -8 30 -10 40 -2 10 -9 38 -16 63 -7 25 -14 53 -16 62 -2 10 -6 26 -8
35 -3 10 -19 74 -36 143 -17 69 -40 163 -51 210 -12 47 -23 92 -26 100 -3 8
-7 22 -8 30 -5 26 -14 61 -21 83 -4 12 -9 29 -10 37 -1 8 -5 25 -8 38 -3 12
-8 30 -10 40 -3 9 -12 46 -21 82 -8 36 -17 72 -19 80 -3 8 -18 71 -36 140 -17
69 -33 132 -35 140 -3 15 -54 216 -59 235 -2 6 -7 28 -11 50 -12 55 -12 55
-15 58 -1 1 -3 9 -5 17 -3 12 -23 95 -40 160 -11 47 -26 108 -30 125 -3 11
-13 54 -24 94 -11 41 -18 79 -15 83 3 4 1 8 -5 8 -5 0 -10 8 -10 18 1 9 -29
134 -66 277 -36 143 -68 269 -71 280 -6 29 -12 55 -24 100 -6 22 -12 47 -14
55 -2 8 -9 33 -15 55 -5 22 -13 54 -16 70 -3 17 -18 77 -33 135 l-28 105 -40
-1 c-45 -1 -169 -12 -201 -18 -11 -3 -43 -8 -70 -12 -82 -12 -243 -47 -318
-71 -98 -30 -200 -65 -232 -79 -17 -8 -33 -14 -36 -14 -3 0 -50 -21 -104 -47
-54 -26 -100 -47 -103 -48 -5 -1 -36 -18 -72 -40 -9 -5 -36 -20 -59 -33 -55
-30 -180 -112 -197 -129 -7 -7 -17 -13 -21 -13 -4 0 -16 -8 -27 -17 -11 -10
-48 -40 -83 -68 -68 -52 -77 -60 -192 -171 -90 -87 -138 -139 -206 -224 -29
-36 -60 -74 -70 -85 -16 -17 -99 -139 -128 -187 -41 -69 -65 -112 -65 -119 0
-5 -4 -9 -8 -9 -4 0 -14 -16 -21 -35 -7 -19 -17 -35 -23 -35 -6 0 -8 -3 -5 -7
4 -3 -3 -22 -15 -42 -13 -20 -22 -37 -20 -38 2 -3 -43 -107 -58 -135 -6 -10
-10 -25 -10 -33 0 -8 -5 -15 -11 -15 -5 0 -8 -4 -5 -9 3 -4 -5 -36 -19 -70
-13 -34 -24 -65 -24 -69 -1 -4 -8 -27 -16 -52 -8 -25 -16 -56 -19 -70 -2 -14
-12 -54 -21 -90 -9 -36 -19 -81 -20 -100 -2 -19 -6 -46 -10 -60 -3 -14 -8 -43
-11 -65 -3 -22 -8 -56 -11 -75 -3 -19 -7 -303 -9 -630 -3 -569 -3 -599 17
-680 11 -47 20 -91 21 -97 1 -7 5 -13 10 -13 5 0 7 -4 3 -9 -3 -6 15 -52 40
-103 118 -243 305 -408 565 -500 30 -11 66 -21 80 -23 14 -2 48 -9 75 -14 33
-7 1284 -10 3665 -10 3711 0 3621 -1 3776 33 51 11 185 71 252 112 95 60 211
170 276 263 54 78 116 198 116 225 0 8 4 17 9 20 5 3 12 20 15 38 3 18 9 44
12 58 22 104 25 192 21 726 -2 319 -6 588 -9 599 -4 12 -9 48 -13 80 -4 33 -9
69 -11 80 -3 11 -7 36 -10 55 -8 55 -63 273 -74 295 -6 11 -12 29 -13 40 -2
11 -10 34 -16 50 -7 17 -14 35 -15 40 -4 13 -14 38 -36 92 -10 23 -16 44 -12
47 3 3 0 6 -6 6 -7 0 -12 6 -12 13 0 15 -104 220 -131 259 -11 15 -17 28 -13
28 4 0 -2 10 -13 23 -11 12 -31 41 -43 65 -13 23 -27 42 -32 42 -4 0 -8 7 -8
15 0 9 -7 18 -15 21 -8 4 -15 11 -15 17 0 32 -275 339 -400 447 -28 25 -57 50
-63 55 -42 38 -158 125 -166 125 -5 0 -11 4 -13 8 -4 11 -94 72 -106 72 -6 0
-12 3 -14 8 -9 21 -377 212 -410 212 -8 0 -18 4 -23 9 -10 10 -241 88 -282 95
-12 3 -26 7 -31 10 -5 3 -24 8 -43 11 -19 3 -41 8 -49 10 -8 2 -28 7 -45 10
-92 18 -143 27 -165 29 -108 14 -162 19 -204 20 l-50 1 -18 -70 c-10 -38 -20
-79 -22 -90 -3 -11 -9 -35 -15 -52 -5 -18 -7 -33 -4 -33 3 0 0 -7 -7 -15 -7
-8 -10 -15 -7 -15 3 0 -3 -30 -13 -66 -11 -36 -21 -78 -24 -92 -3 -15 -7 -36
-10 -47 -44 -174 -68 -273 -71 -288 -2 -10 -7 -27 -10 -37 -3 -10 -8 -28 -10
-41 -2 -12 -11 -45 -19 -73 -8 -28 -18 -66 -21 -85 -3 -19 -8 -37 -10 -41 -2
-3 -6 -17 -8 -31 -3 -13 -17 -68 -31 -122 -14 -54 -28 -108 -30 -120 -3 -12
-5 -22 -6 -22 -1 0 -3 -9 -5 -20 -2 -11 -15 -65 -30 -120 -14 -55 -29 -113
-32 -130 -7 -41 -9 -48 -16 -65 -4 -8 -8 -26 -11 -40 -2 -14 -16 -72 -31 -130
-15 -58 -29 -112 -30 -120 -2 -8 -29 -116 -60 -240 -31 -124 -58 -232 -60
-240 -2 -8 -16 -60 -30 -115 -14 -55 -27 -109 -29 -120 -9 -43 -15 -65 -21
-74 -3 -5 -7 -22 -9 -38 -2 -15 -14 -66 -26 -112 -12 -47 -24 -92 -25 -100 -2
-9 -4 -16 -5 -16 -1 0 -3 -9 -5 -20 -4 -28 -184 -747 -192 -765 -6 -14 -15 16
-28 90 -2 14 -13 59 -24 100 -11 41 -22 89 -25 105 -2 17 -5 31 -6 33 -2 1 -4
7 -5 12 -1 6 -4 13 -5 18 -1 4 -3 12 -4 17 -10 59 -20 103 -26 115 -4 8 -11
31 -14 50 -5 34 -10 56 -22 102 -3 13 -7 32 -9 43 -6 25 -11 47 -26 105 -6 25
-13 54 -15 65 -2 11 -7 31 -10 45 -3 14 -7 34 -9 45 -2 11 -4 21 -5 23 -2 1
-4 7 -5 12 -1 6 -3 11 -4 13 -2 1 -5 13 -7 27 -3 14 -14 63 -25 110 -28 117
-29 122 -34 145 -3 11 -8 31 -11 45 -11 46 -24 105 -30 130 -3 14 -10 43 -16
65 -5 22 -12 49 -14 60 -3 21 -16 75 -32 135 -5 19 -9 38 -10 43 -1 4 -2 8 -3
10 -2 8 -9 36 -13 59 -4 16 -8 38 -11 50 -2 13 -11 52 -20 88 -9 36 -18 73
-20 83 -2 10 -6 26 -9 35 -3 9 -7 28 -10 42 -3 14 -7 35 -10 48 -4 12 -8 30
-10 40 -3 9 -12 47 -20 85 -9 37 -23 97 -32 135 -19 81 -18 79 -39 167 -9 39
-19 79 -21 89 -3 17 21 72 37 86 3 3 12 19 21 35 16 32 21 42 139 247 44 75
79 142 79 148 0 5 5 10 10 10 6 0 10 7 10 15 0 8 3 15 8 15 4 0 16 20 27 45
11 25 23 45 26 45 4 0 12 12 18 28 6 15 22 47 37 72 15 25 38 65 52 90 13 25
28 50 32 55 4 6 22 37 40 70 49 89 67 120 81 143 7 12 11 23 8 26 -6 7 -55 8
-147 4 -39 -2 -72 -1 -72 2 0 6 -129 3 -146 -4 -8 -3 -16 -1 -19 3 -3 5 -21 5
-40 1 -19 -4 -37 -4 -40 0 -3 4 -21 4 -40 0 -19 -4 -37 -4 -40 0 -3 4 -21 4
-40 0 -19 -4 -37 -4 -40 0 -3 4 -21 4 -40 0 -19 -4 -37 -4 -40 0 -3 4 -21 4
-40 0 -19 -4 -37 -4 -40 0 -3 4 -21 4 -40 0 -19 -4 -37 -4 -40 0 -3 4 -22 4
-42 -1 -21 -4 -40 -8 -43 -7 -3 1 -19 4 -36 8 -18 4 -37 4 -44 0 -7 -4 -27 -4
-46 0 -19 4 -34 5 -34 1 0 -5 -19 -5 -42 -2 -24 3 -63 4 -88 1 -25 -3 -60 -2
-77 1 -18 4 -33 4 -33 0 0 -4 -19 -5 -42 -1 -24 3 -65 3 -91 -1 -26 -3 -50 -2
-52 1 -3 4 -23 4 -45 0 -22 -4 -43 -4 -45 0 -3 4 -20 5 -37 1 -18 -4 -45 -4
-59 0 -15 3 -32 3 -39 -1 -7 -4 -27 -4 -45 0 -18 4 -38 4 -45 0z"/>
</g>
</svg>
